<svg width="1440" height="691" viewBox="0 0 1440 691" fill="none" xmlns="http://www.w3.org/2000/svg">
<g clip-path="url(#clip0_1321_275)">
<rect width="1440" height="691" fill="#012022"/>
<g opacity="0.6">
<rect x="-49" y="-49" width="184" height="184" rx="16" fill="#00939D" fill-opacity="0.1"/>
<rect x="-48" y="-48" width="182" height="182" rx="15" stroke="#00939D" stroke-opacity="0.12" stroke-width="2"/>
<rect x="144" y="-48" width="183" height="183" rx="16" fill="#00939D" fill-opacity="0.1"/>
<rect x="145" y="-47" width="181" height="181" rx="15" stroke="#00939D" stroke-opacity="0.12" stroke-width="2"/>
<rect x="337" y="-49" width="184" height="184" rx="16" fill="#00939D" fill-opacity="0.1"/>
<rect x="338" y="-48" width="182" height="182" rx="15" stroke="#00939D" stroke-opacity="0.12" stroke-width="2"/>
<rect x="530" y="-49" width="184" height="184" rx="16" fill="#00939D" fill-opacity="0.1"/>
<rect x="531" y="-48" width="182" height="182" rx="15" stroke="#00939D" stroke-opacity="0.12" stroke-width="2"/>
<rect x="723" y="-49" width="184" height="184" rx="16" fill="#00939D" fill-opacity="0.1"/>
<rect x="724" y="-48" width="182" height="182" rx="15" stroke="#00939D" stroke-opacity="0.12" stroke-width="2"/>
<rect x="917" y="-49" width="184" height="184" rx="16" fill="#00939D" fill-opacity="0.1"/>
<rect x="918" y="-48" width="182" height="182" rx="15" stroke="#00939D" stroke-opacity="0.12" stroke-width="2"/>
<rect x="1110" y="-48" width="183" height="183" rx="16" fill="#00939D" fill-opacity="0.1"/>
<rect x="1111" y="-47" width="181" height="181" rx="15" stroke="#00939D" stroke-opacity="0.12" stroke-width="2"/>
<rect x="1302" y="-49" width="184" height="184" rx="16" fill="#00939D" fill-opacity="0.1"/>
<rect x="1303" y="-48" width="182" height="182" rx="15" stroke="#00939D" stroke-opacity="0.12" stroke-width="2"/>
<rect x="-49" y="144" width="185" height="185" rx="16" fill="#00939D" fill-opacity="0.1"/>
<rect x="-48" y="145" width="183" height="183" rx="15" stroke="#00939D" stroke-opacity="0.12" stroke-width="2"/>
<rect x="144" y="145" width="184" height="184" rx="16" fill="#00939D" fill-opacity="0.1"/>
<rect x="145" y="146" width="182" height="182" rx="15" stroke="#00939D" stroke-opacity="0.12" stroke-width="2"/>
<rect x="337" y="144" width="185" height="185" rx="16" fill="#00939D" fill-opacity="0.1"/>
<rect x="338" y="145" width="183" height="183" rx="15" stroke="#00939D" stroke-opacity="0.12" stroke-width="2"/>
<rect x="530" y="144" width="185" height="185" rx="16" fill="#00939D" fill-opacity="0.1"/>
<rect x="531" y="145" width="183" height="183" rx="15" stroke="#00939D" stroke-opacity="0.12" stroke-width="2"/>
<rect x="723" y="144" width="185" height="185" rx="16" fill="#00939D" fill-opacity="0.1"/>
<rect x="724" y="145" width="183" height="183" rx="15" stroke="#00939D" stroke-opacity="0.12" stroke-width="2"/>
<rect x="917" y="144" width="185" height="185" rx="16" fill="#00939D" fill-opacity="0.1"/>
<rect x="918" y="145" width="183" height="183" rx="15" stroke="#00939D" stroke-opacity="0.12" stroke-width="2"/>
<rect x="1110" y="145" width="184" height="184" rx="16" fill="#00939D" fill-opacity="0.1"/>
<rect x="1111" y="146" width="182" height="182" rx="15" stroke="#00939D" stroke-opacity="0.12" stroke-width="2"/>
<rect x="1302" y="144" width="185" height="185" rx="16" fill="#00939D" fill-opacity="0.1"/>
<rect x="1303" y="145" width="183" height="183" rx="15" stroke="#00939D" stroke-opacity="0.12" stroke-width="2"/>
<rect x="-49" y="337" width="185" height="185" rx="16" fill="#00939D" fill-opacity="0.1"/>
<rect x="-48" y="338" width="183" height="183" rx="15" stroke="#00939D" stroke-opacity="0.12" stroke-width="2"/>
<rect x="144" y="338" width="184" height="184" rx="16" fill="#00939D" fill-opacity="0.1"/>
<rect x="145" y="339" width="182" height="182" rx="15" stroke="#00939D" stroke-opacity="0.12" stroke-width="2"/>
<rect x="337" y="337" width="185" height="185" rx="16" fill="#00939D" fill-opacity="0.1"/>
<rect x="338" y="338" width="183" height="183" rx="15" stroke="#00939D" stroke-opacity="0.12" stroke-width="2"/>
<rect x="530" y="337" width="185" height="185" rx="16" fill="#00939D" fill-opacity="0.1"/>
<rect x="531" y="338" width="183" height="183" rx="15" stroke="#00939D" stroke-opacity="0.12" stroke-width="2"/>
<rect x="723" y="337" width="185" height="185" rx="16" fill="#00939D" fill-opacity="0.1"/>
<rect x="724" y="338" width="183" height="183" rx="15" stroke="#00939D" stroke-opacity="0.12" stroke-width="2"/>
<rect x="917" y="337" width="185" height="185" rx="16" fill="#00939D" fill-opacity="0.1"/>
<rect x="918" y="338" width="183" height="183" rx="15" stroke="#00939D" stroke-opacity="0.12" stroke-width="2"/>
<rect x="1110" y="338" width="184" height="184" rx="16" fill="#00939D" fill-opacity="0.1"/>
<rect x="1111" y="339" width="182" height="182" rx="15" stroke="#00939D" stroke-opacity="0.12" stroke-width="2"/>
<rect x="1302" y="337" width="185" height="185" rx="16" fill="#00939D" fill-opacity="0.1"/>
<rect x="1303" y="338" width="183" height="183" rx="15" stroke="#00939D" stroke-opacity="0.12" stroke-width="2"/>
<rect x="-49" y="531" width="184" height="184" rx="16" fill="#00939D" fill-opacity="0.1"/>
<rect x="-48" y="532" width="182" height="182" rx="15" stroke="#00939D" stroke-opacity="0.12" stroke-width="2"/>
<rect x="144" y="532" width="183" height="183" rx="16" fill="#00939D" fill-opacity="0.1"/>
<rect x="145" y="533" width="181" height="181" rx="15" stroke="#00939D" stroke-opacity="0.12" stroke-width="2"/>
<rect x="337" y="531" width="184" height="184" rx="16" fill="#00939D" fill-opacity="0.1"/>
<rect x="338" y="532" width="182" height="182" rx="15" stroke="#00939D" stroke-opacity="0.12" stroke-width="2"/>
<rect x="530" y="531" width="184" height="184" rx="16" fill="#00939D" fill-opacity="0.1"/>
<rect x="531" y="532" width="182" height="182" rx="15" stroke="#00939D" stroke-opacity="0.12" stroke-width="2"/>
<rect x="723" y="531" width="184" height="184" rx="16" fill="#00939D" fill-opacity="0.1"/>
<rect x="724" y="532" width="182" height="182" rx="15" stroke="#00939D" stroke-opacity="0.12" stroke-width="2"/>
<rect x="917" y="531" width="184" height="184" rx="16" fill="#00939D" fill-opacity="0.1"/>
<rect x="918" y="532" width="182" height="182" rx="15" stroke="#00939D" stroke-opacity="0.12" stroke-width="2"/>
<rect x="1110" y="532" width="183" height="183" rx="16" fill="#00939D" fill-opacity="0.1"/>
<rect x="1111" y="533" width="181" height="181" rx="15" stroke="#00939D" stroke-opacity="0.12" stroke-width="2"/>
<rect x="1302" y="531" width="184" height="184" rx="16" fill="#00939D" fill-opacity="0.1"/>
<rect x="1303" y="532" width="182" height="182" rx="15" stroke="#00939D" stroke-opacity="0.12" stroke-width="2"/>
</g>
<rect width="1440" height="691" fill="url(#paint0_radial_1321_275)" fill-opacity="0.9"/>
</g>
<defs>
<radialGradient id="paint0_radial_1321_275" cx="0" cy="0" r="1" gradientUnits="userSpaceOnUse" gradientTransform="translate(720 345.5) rotate(90) scale(692.5 1640.33)">
<stop offset="0.313387" stop-color="#012022" stop-opacity="0.7"/>
<stop offset="1" stop-color="#012022" stop-opacity="0"/>
</radialGradient>
<clipPath id="clip0_1321_275">
<rect width="1440" height="691" fill="white"/>
</clipPath>
</defs>
</svg>
